<svg xmlns="http://www.w3.org/2000/svg" fill="none" viewBox="0 0 24 24"><path fill="#833CDA" d="m22.77 9.023-7.81-7.79A4.204 4.204 0 0 0 11.987 0c-1.112 0-2.18.443-2.97 1.233L2.898 7.345 1.231 9.023a4.207 4.207 0 0 0 0 5.941l7.799 7.803A4.204 4.204 0 0 0 12 24c1.113 0 2.18-.443 2.972-1.233l7.798-7.803c.39-.388.7-.85.91-1.36a4.21 4.21 0 0 0-.91-4.58Z"/><path fill="#fff" d="M10.667 6.667a1.333 1.333 0 0 1 2.667 0v4h4a1.333 1.333 0 0 1 0 2.666h-4v4a1.333 1.333 0 0 1-2.667 0v-4h-4a1.333 1.333 0 1 1 0-2.666h4v-4Z"/></svg>
