<svg xmlns="http://www.w3.org/2000/svg" width="20" height="20" fill="none"><path fill="#fff" d="M15 10a5 5 0 1 1-10 0 5 5 0 0 1 10 0Z"/><path fill="#5E00A1" d="M11.367 8.342v.598H8.633v-.598c0-.66.56-1.195 1.25-1.195h.234c.69 0 1.25.535 1.25 1.195Z"/><path fill="#5E00A1" fill-rule="evenodd" d="m12.466 1.028 6.51 6.491a3.509 3.509 0 0 1 0 4.951l-6.5 6.502A3.504 3.504 0 0 1 10 20c-.927 0-1.816-.37-2.475-1.028l-6.5-6.502a3.506 3.506 0 0 1 0-4.951L2.417 6.12l5.098-5.092A3.503 3.503 0 0 1 9.99 0c.927 0 1.817.37 2.476 1.028ZM10 6.25c-1.208 0-2.188.937-2.188 2.092v.636c-.538.132-.937.6-.937 1.158v1.793c0 .66.56 1.196 1.25 1.196h3.75c.69 0 1.25-.535 1.25-1.196v-1.793c0-.557-.399-1.026-.938-1.158v-.636c0-1.155-.979-2.092-2.187-2.092Z" clip-rule="evenodd"/></svg>