<svg xmlns="http://www.w3.org/2000/svg" width="20" height="20" fill="none"><path fill="#23AC00" d="m18.975 7.52-6.509-6.492A3.503 3.503 0 0 0 9.99 0c-.927 0-1.816.37-2.476 1.028L2.416 6.12l-1.39 1.4A3.477 3.477 0 0 0 0 9.994a3.506 3.506 0 0 0 1.026 2.475l6.499 6.502A3.503 3.503 0 0 0 10 20c.927 0 1.817-.37 2.476-1.028l6.5-6.502a3.508 3.508 0 0 0 0-4.951Z"/><path fill="#fff" d="M8.442 11.907a.641.641 0 0 0 .952 0l4.737-5.175a.621.621 0 0 1 .923 0 .67.67 0 0 1 0 .9l-5.66 6.183a.641.641 0 0 1-.952 0L5.4 10.492a.67.67 0 0 1 0-.899.621.621 0 0 1 .922 0l2.119 2.314Z"/></svg>